<?xml version="1.0" encoding="UTF-8"?>
<svg xmlns="http://www.w3.org/2000/svg" width="3360px" height="2100px" viewBox="0 0 1120 700"><style>text{font-family:SimSun,"Microsoft YaHei","Noto Sans CJK SC",sans-serif}</style><rect width="1120" height="700" fill="#ffffff"/><text x="560" y="22" fill="#111827" font-size="21" font-weight="700" text-anchor="middle" dominant-baseline="hanging">Q3 P3｜预算与上下文变化下的资源配置</text><text x="560" y="53" fill="#4b5563" font-size="12.5" font-weight="400" text-anchor="middle" dominant-baseline="hanging">15 个固定 Q₀ 的离散情景；22 对变化仅作描述，不作结构转移推断</text><text x="64" y="78" fill="#333333" font-size="11" font-weight="400" text-anchor="start" dominant-baseline="hanging">上下文长度</text><line x1="156" y1="85" x2="176" y2="85" stroke="#0072B2" stroke-width="1.8" stroke-linecap="round"/><circle cx="166" cy="85" r="3.2" fill="#0072B2" stroke="#ffffff" stroke-width="0.7"/><text x="182" y="78" fill="#333333" font-size="10.5" font-weight="400" text-anchor="start" dominant-baseline="hanging">2k</text><line x1="280" y1="85" x2="300" y2="85" stroke="#D55E00" stroke-width="1.8" stroke-linecap="round"/><rect x="286.8" y="81.8" width="6.4" height="6.4" rx="0.5" fill="#D55E00" stroke="#ffffff" stroke-width="0.7"/><text x="306" y="78" fill="#333333" font-size="10.5" font-weight="400" text-anchor="start" dominant-baseline="hanging">4k</text><line x1="404" y1="85" x2="424" y2="85" stroke="#009E73" stroke-width="1.8" stroke-linecap="round"/><polygon points="414,81 410.64,88.2 417.36,88.2" fill="#009E73" stroke="#ffffff" stroke-width="0.7" stroke-linejoin="round"/><text x="430" y="78" fill="#333333" font-size="10.5" font-weight="400" text-anchor="start" dominant-baseline="hanging">8k</text><line x1="528" y1="85" x2="548" y2="85" stroke="#CC79A7" stroke-width="1.8" stroke-linecap="round"/><polygon points="538,81.16 534.8,85 538,88.84 541.2,85" fill="#CC79A7" stroke="#ffffff" stroke-width="0.7" stroke-linejoin="round"/><text x="554" y="78" fill="#333333" font-size="10.5" font-weight="400" text-anchor="start" dominant-baseline="hanging">32k</text><line x1="652" y1="85" x2="672" y2="85" stroke="#E69F00" stroke-width="1.8" stroke-linecap="round"/><line x1="658.8" y1="85" x2="665.2" y2="85" stroke="#E69F00" stroke-width="1.8" stroke-linecap="round"/><line x1="662" y1="81.8" x2="662" y2="88.2" stroke="#E69F00" stroke-width="1.8" stroke-linecap="round"/><text x="678" y="78" fill="#333333" font-size="10.5" font-weight="400" text-anchor="start" dominant-baseline="hanging">128k</text><text x="296" y="104" fill="#111827" font-size="13.5" font-weight="700" text-anchor="middle" dominant-baseline="hanging">模型规模 N（十亿参数）</text><line x1="104" y1="138" x2="104" y2="302" stroke="#333333" stroke-width="1" stroke-linecap="round"/><line x1="104" y1="302" x2="538" y2="302" stroke="#333333" stroke-width="1" stroke-linecap="round"/><line x1="104" y1="302" x2="538" y2="302" stroke="#d9dee5" stroke-width="0.75" stroke-linecap="round"/><text x="96" y="296" fill="#333333" font-size="10" font-weight="400" text-anchor="end" dominant-baseline="hanging">0.0677</text><line x1="104" y1="261" x2="538" y2="261" stroke="#d9dee5" stroke-width="0.75" stroke-linecap="round"/><text x="96" y="255" fill="#333333" font-size="10" font-weight="400" text-anchor="end" dominant-baseline="hanging">3.16</text><line x1="104" y1="220" x2="538" y2="220" stroke="#d9dee5" stroke-width="0.75" stroke-linecap="round"/><text x="96" y="214" fill="#333333" font-size="10" font-weight="400" text-anchor="end" dominant-baseline="hanging">6.26</text><line x1="104" y1="179" x2="538" y2="179" stroke="#d9dee5" stroke-width="0.75" stroke-linecap="round"/><text x="96" y="173" fill="#333333" font-size="10" font-weight="400" text-anchor="end" dominant-baseline="hanging">9.35</text><line x1="104" y1="138" x2="538" y2="138" stroke="#d9dee5" stroke-width="0.75" stroke-linecap="round"/><text x="96" y="132" fill="#333333" font-size="10" font-weight="400" text-anchor="end" dominant-baseline="hanging">12.4</text><line x1="104" y1="302" x2="104" y2="306" stroke="#333333" stroke-width="0.8" stroke-linecap="round"/><text x="104" y="309" fill="#333333" font-size="10" font-weight="400" text-anchor="middle" dominant-baseline="hanging">10¹⁹</text><line x1="364.4" y1="302" x2="364.4" y2="306" stroke="#333333" stroke-width="0.8" stroke-linecap="round"/><text x="364.4" y="309" fill="#333333" font-size="10" font-weight="400" text-anchor="middle" dominant-baseline="hanging">10²²</text><line x1="538" y1="302" x2="538" y2="306" stroke="#333333" stroke-width="0.8" stroke-linecap="round"/><text x="538" y="309" fill="#333333" font-size="10" font-weight="400" text-anchor="middle" dominant-baseline="hanging">10²⁴</text><text x="321" y="331" fill="#222222" font-size="10.5" font-weight="400" text-anchor="middle" dominant-baseline="hanging">预算 FLOPs</text><polyline points="104,300.7453650613366 364.4,211.9839993118445 538,144.34220535568465" fill="none" stroke="#0072B2" stroke-width="1.6" stroke-dasharray="5,3" stroke-linejoin="round" stroke-linecap="round"/><circle cx="104" cy="300.7453650613366" r="3.5" fill="#0072B2" stroke="#ffffff" stroke-width="0.7"/><circle cx="364.4" cy="211.9839993118445" r="3.5" fill="#0072B2" stroke="#ffffff" stroke-width="0.7"/><circle cx="538" cy="144.34220535568465" r="3.5" fill="#0072B2" stroke="#ffffff" stroke-width="0.7"/><circle cx="538" cy="144.34220535568465" r="6" fill="none" stroke="#111827" stroke-width="1"/><polyline points="104,300.7453650613366 364.4,211.9839993118445 538,144.34220535568465" fill="none" stroke="#D55E00" stroke-width="1.6" stroke-dasharray="5,3" stroke-linejoin="round" stroke-linecap="round"/><rect x="100.5" y="297.2453650613366" width="7" height="7" rx="0.5" fill="#D55E00" stroke="#ffffff" stroke-width="0.7"/><rect x="360.9" y="208.4839993118445" width="7" height="7" rx="0.5" fill="#D55E00" stroke="#ffffff" stroke-width="0.7"/><rect x="534.5" y="140.84220535568465" width="7" height="7" rx="0.5" fill="#D55E00" stroke="#ffffff" stroke-width="0.7"/><circle cx="538" cy="144.34220535568465" r="6" fill="none" stroke="#111827" stroke-width="1"/><polyline points="104,300.7453650613366 364.4,211.9839993118445 538,144.34220535568465" fill="none" stroke="#009E73" stroke-width="1.6" stroke-dasharray="5,3" stroke-linejoin="round" stroke-linecap="round"/><polygon points="104,296.3703650613366 100.325,304.2453650613366 107.675,304.2453650613366" fill="#009E73" stroke="#ffffff" stroke-width="0.7" stroke-linejoin="round"/><polygon points="364.4,207.6089993118445 360.72499999999997,215.4839993118445 368.075,215.4839993118445" fill="#009E73" stroke="#ffffff" stroke-width="0.7" stroke-linejoin="round"/><polygon points="538,139.96720535568465 534.325,147.84220535568465 541.675,147.84220535568465" fill="#009E73" stroke="#ffffff" stroke-width="0.7" stroke-linejoin="round"/><circle cx="538" cy="144.34220535568465" r="6" fill="none" stroke="#111827" stroke-width="1"/><polyline points="104,300.7453650613366 364.4,266.0229789923123 538,144.34220535568465" fill="none" stroke="#CC79A7" stroke-width="1.6" stroke-dasharray="5,3" stroke-linejoin="round" stroke-linecap="round"/><polygon points="104,296.5453650613366 100.5,300.7453650613366 104,304.9453650613366 107.5,300.7453650613366" fill="#CC79A7" stroke="#ffffff" stroke-width="0.7" stroke-linejoin="round"/><polygon points="364.4,261.8229789923123 360.9,266.0229789923123 364.4,270.2229789923123 367.9,266.0229789923123" fill="#CC79A7" stroke="#ffffff" stroke-width="0.7" stroke-linejoin="round"/><polygon points="538,140.14220535568467 534.5,144.34220535568465 538,148.54220535568464 541.5,144.34220535568465" fill="#CC79A7" stroke="#ffffff" stroke-width="0.7" stroke-linejoin="round"/><circle cx="538" cy="144.34220535568465" r="6" fill="none" stroke="#111827" stroke-width="1"/><polyline points="104,301.96261086467496 364.4,266.0229789923123 538,144.34220535568465" fill="none" stroke="#E69F00" stroke-width="1.6" stroke-dasharray="5,3" stroke-linejoin="round" stroke-linecap="round"/><line x1="100.5" y1="301.96261086467496" x2="107.5" y2="301.96261086467496" stroke="#E69F00" stroke-width="1.8" stroke-linecap="round"/><line x1="104" y1="298.46261086467496" x2="104" y2="305.46261086467496" stroke="#E69F00" stroke-width="1.8" stroke-linecap="round"/><line x1="360.9" y1="266.0229789923123" x2="367.9" y2="266.0229789923123" stroke="#E69F00" stroke-width="1.8" stroke-linecap="round"/><line x1="364.4" y1="262.5229789923123" x2="364.4" y2="269.5229789923123" stroke="#E69F00" stroke-width="1.8" stroke-linecap="round"/><line x1="534.5" y1="144.34220535568465" x2="541.5" y2="144.34220535568465" stroke="#E69F00" stroke-width="1.8" stroke-linecap="round"/><line x1="538" y1="140.84220535568465" x2="538" y2="147.84220535568465" stroke="#E69F00" stroke-width="1.8" stroke-linecap="round"/><circle cx="538" cy="144.34220535568465" r="6" fill="none" stroke="#111827" stroke-width="1"/><text x="824" y="104" fill="#111827" font-size="13.5" font-weight="700" text-anchor="middle" dominant-baseline="hanging">数据规模 D（十亿 Token）</text><line x1="632" y1="138" x2="632" y2="302" stroke="#333333" stroke-width="1" stroke-linecap="round"/><line x1="632" y1="302" x2="1066" y2="302" stroke="#333333" stroke-width="1" stroke-linecap="round"/><line x1="632" y1="302" x2="1066" y2="302" stroke="#d9dee5" stroke-width="0.75" stroke-linecap="round"/><text x="624" y="296" fill="#333333" font-size="10" font-weight="400" text-anchor="end" dominant-baseline="hanging">4.03</text><line x1="632" y1="261" x2="1066" y2="261" stroke="#d9dee5" stroke-width="0.75" stroke-linecap="round"/><text x="624" y="255" fill="#333333" font-size="10" font-weight="400" text-anchor="end" dominant-baseline="hanging">81</text><line x1="632" y1="220" x2="1066" y2="220" stroke="#d9dee5" stroke-width="0.75" stroke-linecap="round"/><text x="624" y="214" fill="#333333" font-size="10" font-weight="400" text-anchor="end" dominant-baseline="hanging">158</text><line x1="632" y1="179" x2="1066" y2="179" stroke="#d9dee5" stroke-width="0.75" stroke-linecap="round"/><text x="624" y="173" fill="#333333" font-size="10" font-weight="400" text-anchor="end" dominant-baseline="hanging">235</text><line x1="632" y1="138" x2="1066" y2="138" stroke="#d9dee5" stroke-width="0.75" stroke-linecap="round"/><text x="624" y="132" fill="#333333" font-size="10" font-weight="400" text-anchor="end" dominant-baseline="hanging">312</text><line x1="632" y1="302" x2="632" y2="306" stroke="#333333" stroke-width="0.8" stroke-linecap="round"/><text x="632" y="309" fill="#333333" font-size="10" font-weight="400" text-anchor="middle" dominant-baseline="hanging">10¹⁹</text><line x1="892.4" y1="302" x2="892.4" y2="306" stroke="#333333" stroke-width="0.8" stroke-linecap="round"/><text x="892.4" y="309" fill="#333333" font-size="10" font-weight="400" text-anchor="middle" dominant-baseline="hanging">10²²</text><line x1="1066" y1="302" x2="1066" y2="306" stroke="#333333" stroke-width="0.8" stroke-linecap="round"/><text x="1066" y="309" fill="#333333" font-size="10" font-weight="400" text-anchor="middle" dominant-baseline="hanging">10²⁴</text><text x="849" y="331" fill="#222222" font-size="10.5" font-weight="400" text-anchor="middle" dominant-baseline="hanging">预算 FLOPs</text><polyline points="632,299.6759342677939 892.4,183.49129234585521 1066,144.39018460450265" fill="none" stroke="#0072B2" stroke-width="1.6" stroke-dasharray="5,3" stroke-linejoin="round" stroke-linecap="round"/><circle cx="632" cy="299.6759342677939" r="3.5" fill="#0072B2" stroke="#ffffff" stroke-width="0.7"/><circle cx="892.4" cy="183.49129234585521" r="3.5" fill="#0072B2" stroke="#ffffff" stroke-width="0.7"/><circle cx="1066" cy="144.39018460450265" r="3.5" fill="#0072B2" stroke="#ffffff" stroke-width="0.7"/><circle cx="1066" cy="144.39018460450265" r="6" fill="none" stroke="#111827" stroke-width="1"/><polyline points="632,299.6759342677939 892.4,191.31140735304933 1066,144.39018460450265" fill="none" stroke="#D55E00" stroke-width="1.6" stroke-dasharray="5,3" stroke-linejoin="round" stroke-linecap="round"/><rect x="628.5" y="296.1759342677939" width="7" height="7" rx="0.5" fill="#D55E00" stroke="#ffffff" stroke-width="0.7"/><rect x="888.9" y="187.81140735304933" width="7" height="7" rx="0.5" fill="#D55E00" stroke="#ffffff" stroke-width="0.7"/><rect x="1062.5" y="140.89018460450265" width="7" height="7" rx="0.5" fill="#D55E00" stroke="#ffffff" stroke-width="0.7"/><circle cx="1066" cy="144.39018460450265" r="6" fill="none" stroke="#111827" stroke-width="1"/><polyline points="632,300.793550159149 892.4,203.5998551041361 1066,144.39018460450265" fill="none" stroke="#009E73" stroke-width="1.6" stroke-dasharray="5,3" stroke-linejoin="round" stroke-linecap="round"/><polygon points="632,296.418550159149 628.325,304.293550159149 635.675,304.293550159149" fill="#009E73" stroke="#ffffff" stroke-width="0.7" stroke-linejoin="round"/><polygon points="892.4,199.2248551041361 888.725,207.0998551041361 896.0749999999999,207.0998551041361" fill="#009E73" stroke="#ffffff" stroke-width="0.7" stroke-linejoin="round"/><polygon points="1066,140.01518460450265 1062.325,147.89018460450265 1069.675,147.89018460450265" fill="#009E73" stroke="#ffffff" stroke-width="0.7" stroke-linejoin="round"/><circle cx="1066" cy="144.39018460450265" r="6" fill="none" stroke="#111827" stroke-width="1"/><polyline points="632,301.91063334512216 892.4,152.21029961169674 1066,144.39018460450265" fill="none" stroke="#CC79A7" stroke-width="1.6" stroke-dasharray="5,3" stroke-linejoin="round" stroke-linecap="round"/><polygon points="632,297.7106333451222 628.5,301.91063334512216 632,306.11063334512215 635.5,301.91063334512216" fill="#CC79A7" stroke="#ffffff" stroke-width="0.7" stroke-linejoin="round"/><polygon points="892.4,148.01029961169675 888.9,152.21029961169674 892.4,156.41029961169673 895.9,152.21029961169674" fill="#CC79A7" stroke="#ffffff" stroke-width="0.7" stroke-linejoin="round"/><polygon points="1066,140.19018460450266 1062.5,144.39018460450265 1066,148.59018460450264 1069.5,144.39018460450265" fill="#CC79A7" stroke="#ffffff" stroke-width="0.7" stroke-linejoin="round"/><circle cx="1066" cy="144.39018460450265" r="6" fill="none" stroke="#111827" stroke-width="1"/><polyline points="632,301.91063334512216 892.4,244.93512921743502 1066,144.39018460450265" fill="none" stroke="#E69F00" stroke-width="1.6" stroke-dasharray="5,3" stroke-linejoin="round" stroke-linecap="round"/><line x1="628.5" y1="301.91063334512216" x2="635.5" y2="301.91063334512216" stroke="#E69F00" stroke-width="1.8" stroke-linecap="round"/><line x1="632" y1="298.41063334512216" x2="632" y2="305.41063334512216" stroke="#E69F00" stroke-width="1.8" stroke-linecap="round"/><line x1="888.9" y1="244.93512921743502" x2="895.9" y2="244.93512921743502" stroke="#E69F00" stroke-width="1.8" stroke-linecap="round"/><line x1="892.4" y1="241.43512921743502" x2="892.4" y2="248.43512921743502" stroke="#E69F00" stroke-width="1.8" stroke-linecap="round"/><line x1="1062.5" y1="144.39018460450265" x2="1069.5" y2="144.39018460450265" stroke="#E69F00" stroke-width="1.8" stroke-linecap="round"/><line x1="1066" y1="140.89018460450265" x2="1066" y2="147.89018460450265" stroke="#E69F00" stroke-width="1.8" stroke-linecap="round"/><circle cx="1066" cy="144.39018460450265" r="6" fill="none" stroke="#111827" stroke-width="1"/><text x="296" y="380" fill="#111827" font-size="13.5" font-weight="700" text-anchor="middle" dominant-baseline="hanging">M0 选点成本份额</text><line x1="98" y1="414" x2="98" y2="558" stroke="#333" stroke-width="1" stroke-linecap="round"/><line x1="98" y1="558" x2="538" y2="558" stroke="#333" stroke-width="1" stroke-linecap="round"/><line x1="98" y1="558" x2="538" y2="558" stroke="#d9dee5" stroke-width="0.7" stroke-linecap="round"/><text x="90" y="552" fill="#333" font-size="9" font-weight="400" text-anchor="end" dominant-baseline="hanging">0%</text><line x1="98" y1="522" x2="538" y2="522" stroke="#d9dee5" stroke-width="0.7" stroke-linecap="round"/><text x="90" y="516" fill="#333" font-size="9" font-weight="400" text-anchor="end" dominant-baseline="hanging">25%</text><line x1="98" y1="486" x2="538" y2="486" stroke="#d9dee5" stroke-width="0.7" stroke-linecap="round"/><text x="90" y="480" fill="#333" font-size="9" font-weight="400" text-anchor="end" dominant-baseline="hanging">50%</text><line x1="98" y1="450" x2="538" y2="450" stroke="#d9dee5" stroke-width="0.7" stroke-linecap="round"/><text x="90" y="444" fill="#333" font-size="9" font-weight="400" text-anchor="end" dominant-baseline="hanging">75%</text><line x1="98" y1="414" x2="538" y2="414" stroke="#d9dee5" stroke-width="0.7" stroke-linecap="round"/><text x="90" y="408" fill="#333" font-size="9" font-weight="400" text-anchor="end" dominant-baseline="hanging">100%</text><rect x="106.94666666666667" y="423.2021967049426" width="11.440000000000001" height="134.7978032950574" rx="0" fill="#0072B2" stroke="#ffffff" stroke-width="0.5"/><rect x="106.94666666666667" y="414" width="11.440000000000001" height="9.202196704942587" rx="0" fill="#E69F00" stroke="#ffffff" stroke-width="0.5"/><rect x="106.94666666666667" y="414" width="11.440000000000001" height="0" rx="0" fill="#9ca3af" stroke="#ffffff" stroke-width="0.5"/><text x="112.66666666666667" y="563" fill="#333" font-size="8" font-weight="400" text-anchor="middle" dominant-baseline="hanging">¹⁹</text><rect x="136.28" y="423.2021967049426" width="11.440000000000001" height="134.7978032950574" rx="0" fill="#0072B2" stroke="#ffffff" stroke-width="0.5"/><rect x="136.28" y="414" width="11.440000000000001" height="9.202196704942587" rx="0" fill="#E69F00" stroke="#ffffff" stroke-width="0.5"/><rect x="136.28" y="414" width="11.440000000000001" height="0" rx="0" fill="#9ca3af" stroke="#ffffff" stroke-width="0.5"/><text x="142" y="563" fill="#333" font-size="8" font-weight="400" text-anchor="middle" dominant-baseline="hanging">²²</text><rect x="165.61333333333332" y="423.2021967049426" width="11.440000000000001" height="134.7978032950574" rx="0" fill="#0072B2" stroke="#ffffff" stroke-width="0.5"/><rect x="165.61333333333332" y="414" width="11.440000000000001" height="9.202196704942587" rx="0" fill="#E69F00" stroke="#ffffff" stroke-width="0.5"/><rect x="165.61333333333332" y="414" width="11.440000000000001" height="0" rx="0" fill="#9ca3af" stroke="#ffffff" stroke-width="0.5"/><text x="171.33333333333331" y="563" fill="#333" font-size="8" font-weight="400" text-anchor="middle" dominant-baseline="hanging">²⁴</text><rect x="194.94666666666666" y="431.2989206945096" width="11.440000000000001" height="126.70107930549038" rx="0" fill="#0072B2" stroke="#ffffff" stroke-width="0.5"/><rect x="194.94666666666666" y="414" width="11.440000000000001" height="17.29892069450962" rx="0" fill="#E69F00" stroke="#ffffff" stroke-width="0.5"/><rect x="194.94666666666666" y="414" width="11.440000000000001" height="0" rx="0" fill="#9ca3af" stroke="#ffffff" stroke-width="0.5"/><text x="200.66666666666666" y="563" fill="#333" font-size="8" font-weight="400" text-anchor="middle" dominant-baseline="hanging">¹⁹</text><rect x="224.28" y="431.2989206945096" width="11.440000000000001" height="126.70107930549038" rx="0" fill="#0072B2" stroke="#ffffff" stroke-width="0.5"/><rect x="224.28" y="414" width="11.440000000000001" height="17.29892069450962" rx="0" fill="#E69F00" stroke="#ffffff" stroke-width="0.5"/><rect x="224.28" y="414" width="11.440000000000001" height="0" rx="0" fill="#9ca3af" stroke="#ffffff" stroke-width="0.5"/><text x="230" y="563" fill="#333" font-size="8" font-weight="400" text-anchor="middle" dominant-baseline="hanging">²²</text><rect x="253.61333333333332" y="431.2989206945096" width="11.440000000000001" height="126.70107930549038" rx="0" fill="#0072B2" stroke="#ffffff" stroke-width="0.5"/><rect x="253.61333333333332" y="414" width="11.440000000000001" height="17.29892069450962" rx="0" fill="#E69F00" stroke="#ffffff" stroke-width="0.5"/><rect x="253.61333333333332" y="414" width="11.440000000000001" height="0" rx="0" fill="#9ca3af" stroke="#ffffff" stroke-width="0.5"/><text x="259.3333333333333" y="563" fill="#333" font-size="8" font-weight="400" text-anchor="middle" dominant-baseline="hanging">²⁴</text><rect x="282.94666666666666" y="444.887306242145" width="11.440000000000001" height="113.11269375785506" rx="0" fill="#0072B2" stroke="#ffffff" stroke-width="0.5"/><rect x="282.94666666666666" y="414" width="11.440000000000001" height="30.887306242144952" rx="0" fill="#E69F00" stroke="#ffffff" stroke-width="0.5"/><rect x="282.94666666666666" y="414" width="11.440000000000001" height="0" rx="0" fill="#9ca3af" stroke="#ffffff" stroke-width="0.5"/><text x="288.6666666666667" y="563" fill="#333" font-size="8" font-weight="400" text-anchor="middle" dominant-baseline="hanging">¹⁹</text><rect x="312.28" y="444.887306242145" width="11.440000000000001" height="113.11269375785506" rx="0" fill="#0072B2" stroke="#ffffff" stroke-width="0.5"/><rect x="312.28" y="414" width="11.440000000000001" height="30.887306242144952" rx="0" fill="#E69F00" stroke="#ffffff" stroke-width="0.5"/><rect x="312.28" y="414" width="11.440000000000001" height="0" rx="0" fill="#9ca3af" stroke="#ffffff" stroke-width="0.5"/><text x="318" y="563" fill="#333" font-size="8" font-weight="400" text-anchor="middle" dominant-baseline="hanging">²²</text><rect x="341.6133333333333" y="444.887306242145" width="11.440000000000001" height="113.11269375785506" rx="0" fill="#0072B2" stroke="#ffffff" stroke-width="0.5"/><rect x="341.6133333333333" y="414" width="11.440000000000001" height="30.887306242144952" rx="0" fill="#E69F00" stroke="#ffffff" stroke-width="0.5"/><rect x="341.6133333333333" y="414" width="11.440000000000001" height="0" rx="0" fill="#9ca3af" stroke="#ffffff" stroke-width="0.5"/><text x="347.3333333333333" y="563" fill="#333" font-size="8" font-weight="400" text-anchor="middle" dominant-baseline="hanging">²⁴</text><rect x="370.94666666666666" y="489.1751210808055" width="11.440000000000001" height="68.8248789191945" rx="0" fill="#0072B2" stroke="#ffffff" stroke-width="0.5"/><rect x="370.94666666666666" y="414" width="11.440000000000001" height="75.17512108080551" rx="0" fill="#E69F00" stroke="#ffffff" stroke-width="0.5"/><rect x="370.94666666666666" y="414" width="11.440000000000001" height="0" rx="0" fill="#9ca3af" stroke="#ffffff" stroke-width="0.5"/><text x="376.6666666666667" y="563" fill="#333" font-size="8" font-weight="400" text-anchor="middle" dominant-baseline="hanging">¹⁹</text><rect x="400.28" y="489.1751210808055" width="11.440000000000001" height="68.8248789191945" rx="0" fill="#0072B2" stroke="#ffffff" stroke-width="0.5"/><rect x="400.28" y="414" width="11.440000000000001" height="75.17512108080551" rx="0" fill="#E69F00" stroke="#ffffff" stroke-width="0.5"/><rect x="400.28" y="414" width="11.440000000000001" height="0" rx="0" fill="#9ca3af" stroke="#ffffff" stroke-width="0.5"/><text x="406" y="563" fill="#333" font-size="8" font-weight="400" text-anchor="middle" dominant-baseline="hanging">²²</text><rect x="429.6133333333333" y="489.1751210808055" width="11.440000000000001" height="68.8248789191945" rx="0" fill="#0072B2" stroke="#ffffff" stroke-width="0.5"/><rect x="429.6133333333333" y="414" width="11.440000000000001" height="75.17512108080551" rx="0" fill="#E69F00" stroke="#ffffff" stroke-width="0.5"/><rect x="429.6133333333333" y="414" width="11.440000000000001" height="0" rx="0" fill="#9ca3af" stroke="#ffffff" stroke-width="0.5"/><text x="435.3333333333333" y="563" fill="#333" font-size="8" font-weight="400" text-anchor="middle" dominant-baseline="hanging">²⁴</text><rect x="458.94666666666666" y="531.1796960365551" width="11.440000000000001" height="26.820303963444918" rx="0" fill="#0072B2" stroke="#ffffff" stroke-width="0.5"/><rect x="458.94666666666666" y="414.00000000000006" width="11.440000000000001" height="117.17969603655509" rx="0" fill="#E69F00" stroke="#ffffff" stroke-width="0.5"/><rect x="458.94666666666666" y="414.00000000000006" width="11.440000000000001" height="0" rx="0" fill="#9ca3af" stroke="#ffffff" stroke-width="0.5"/><text x="464.6666666666667" y="563" fill="#333" font-size="8" font-weight="400" text-anchor="middle" dominant-baseline="hanging">¹⁹</text><rect x="488.28" y="531.1796960365551" width="11.440000000000001" height="26.820303963444918" rx="0" fill="#0072B2" stroke="#ffffff" stroke-width="0.5"/><rect x="488.28" y="414.00000000000006" width="11.440000000000001" height="117.17969603655509" rx="0" fill="#E69F00" stroke="#ffffff" stroke-width="0.5"/><rect x="488.28" y="414.00000000000006" width="11.440000000000001" height="0" rx="0" fill="#9ca3af" stroke="#ffffff" stroke-width="0.5"/><text x="494" y="563" fill="#333" font-size="8" font-weight="400" text-anchor="middle" dominant-baseline="hanging">²²</text><rect x="517.6133333333333" y="531.1796960365551" width="11.440000000000001" height="26.820303963444918" rx="0" fill="#0072B2" stroke="#ffffff" stroke-width="0.5"/><rect x="517.6133333333333" y="414.00000000000006" width="11.440000000000001" height="117.17969603655509" rx="0" fill="#E69F00" stroke="#ffffff" stroke-width="0.5"/><rect x="517.6133333333333" y="414.00000000000006" width="11.440000000000001" height="0" rx="0" fill="#9ca3af" stroke="#ffffff" stroke-width="0.5"/><text x="523.3333333333334" y="563" fill="#333" font-size="8" font-weight="400" text-anchor="middle" dominant-baseline="hanging">²⁴</text><text x="142" y="578" fill="#374151" font-size="8.8" font-weight="700" text-anchor="middle" dominant-baseline="hanging">2k</text><text x="230" y="578" fill="#374151" font-size="8.8" font-weight="700" text-anchor="middle" dominant-baseline="hanging">4k</text><text x="318" y="578" fill="#374151" font-size="8.8" font-weight="700" text-anchor="middle" dominant-baseline="hanging">8k</text><text x="406" y="578" fill="#374151" font-size="8.8" font-weight="700" text-anchor="middle" dominant-baseline="hanging">32k</text><text x="494" y="578" fill="#374151" font-size="8.8" font-weight="700" text-anchor="middle" dominant-baseline="hanging">128k</text><rect x="98" y="604" width="9" height="9" rx="0" fill="#0072B2" stroke="none" stroke-width="1"/><text x="112" y="602" fill="#333" font-size="9" font-weight="400" text-anchor="start" dominant-baseline="hanging">训练</text><rect x="248" y="604" width="9" height="9" rx="0" fill="#E69F00" stroke="none" stroke-width="1"/><text x="262" y="602" fill="#333" font-size="9" font-weight="400" text-anchor="start" dominant-baseline="hanging">注意力</text><rect x="398" y="604" width="9" height="9" rx="0" fill="#9ca3af" stroke="none" stroke-width="1"/><text x="412" y="602" fill="#333" font-size="9" font-weight="400" text-anchor="start" dominant-baseline="hanging">质量（固定 Q₀=0）</text><text x="824" y="380" fill="#111827" font-size="13.5" font-weight="700" text-anchor="middle" dominant-baseline="hanging">M0 预测验证 Loss</text><line x1="632" y1="414" x2="632" y2="582" stroke="#333333" stroke-width="1" stroke-linecap="round"/><line x1="632" y1="582" x2="1066" y2="582" stroke="#333333" stroke-width="1" stroke-linecap="round"/><line x1="632" y1="582" x2="1066" y2="582" stroke="#d9dee5" stroke-width="0.75" stroke-linecap="round"/><text x="624" y="576" fill="#333333" font-size="10" font-weight="400" text-anchor="end" dominant-baseline="hanging">2</text><line x1="632" y1="540" x2="1066" y2="540" stroke="#d9dee5" stroke-width="0.75" stroke-linecap="round"/><text x="624" y="534" fill="#333333" font-size="10" font-weight="400" text-anchor="end" dominant-baseline="hanging">2.38</text><line x1="632" y1="498" x2="1066" y2="498" stroke="#d9dee5" stroke-width="0.75" stroke-linecap="round"/><text x="624" y="492" fill="#333333" font-size="10" font-weight="400" text-anchor="end" dominant-baseline="hanging">2.76</text><line x1="632" y1="456" x2="1066" y2="456" stroke="#d9dee5" stroke-width="0.75" stroke-linecap="round"/><text x="624" y="450" fill="#333333" font-size="10" font-weight="400" text-anchor="end" dominant-baseline="hanging">3.15</text><line x1="632" y1="414" x2="1066" y2="414" stroke="#d9dee5" stroke-width="0.75" stroke-linecap="round"/><text x="624" y="408" fill="#333333" font-size="10" font-weight="400" text-anchor="end" dominant-baseline="hanging">3.53</text><line x1="632" y1="582" x2="632" y2="586" stroke="#333333" stroke-width="0.8" stroke-linecap="round"/><text x="632" y="589" fill="#333333" font-size="10" font-weight="400" text-anchor="middle" dominant-baseline="hanging">10¹⁹</text><line x1="892.4" y1="582" x2="892.4" y2="586" stroke="#333333" stroke-width="0.8" stroke-linecap="round"/><text x="892.4" y="589" fill="#333333" font-size="10" font-weight="400" text-anchor="middle" dominant-baseline="hanging">10²²</text><line x1="1066" y1="582" x2="1066" y2="586" stroke="#333333" stroke-width="0.8" stroke-linecap="round"/><text x="1066" y="589" fill="#333333" font-size="10" font-weight="400" text-anchor="middle" dominant-baseline="hanging">10²⁴</text><text x="849" y="611" fill="#222222" font-size="10.5" font-weight="400" text-anchor="middle" dominant-baseline="hanging">预算 FLOPs</text><polyline points="632,468.8582997631546 892.4,566.0113228771869 1066,571.7465678361915" fill="none" stroke="#0072B2" stroke-width="1.6" stroke-dasharray="5,3" stroke-linejoin="round" stroke-linecap="round"/><circle cx="632" cy="468.8582997631546" r="3.5" fill="#0072B2" stroke="#ffffff" stroke-width="0.7"/><circle cx="892.4" cy="566.0113228771869" r="3.5" fill="#0072B2" stroke="#ffffff" stroke-width="0.7"/><circle cx="1066" cy="571.7465678361915" r="3.5" fill="#0072B2" stroke="#ffffff" stroke-width="0.7"/><circle cx="1066" cy="571.7465678361915" r="6" fill="none" stroke="#111827" stroke-width="1"/><polyline points="632,468.8582997631546 892.4,565.4461130237315 1066,571.7465678361915" fill="none" stroke="#D55E00" stroke-width="1.6" stroke-dasharray="5,3" stroke-linejoin="round" stroke-linecap="round"/><rect x="628.5" y="465.3582997631546" width="7" height="7" rx="0.5" fill="#D55E00" stroke="#ffffff" stroke-width="0.7"/><rect x="888.9" y="561.9461130237315" width="7" height="7" rx="0.5" fill="#D55E00" stroke="#ffffff" stroke-width="0.7"/><rect x="1062.5" y="568.2465678361915" width="7" height="7" rx="0.5" fill="#D55E00" stroke="#ffffff" stroke-width="0.7"/><circle cx="1066" cy="571.7465678361915" r="6" fill="none" stroke="#111827" stroke-width="1"/><polyline points="632,462.5590270188125 892.4,564.4483739785533 1066,571.7465678361915" fill="none" stroke="#009E73" stroke-width="1.6" stroke-dasharray="5,3" stroke-linejoin="round" stroke-linecap="round"/><polygon points="632,458.1840270188125 628.325,466.0590270188125 635.675,466.0590270188125" fill="#009E73" stroke="#ffffff" stroke-width="0.7" stroke-linejoin="round"/><polygon points="892.4,560.0733739785533 888.725,567.9483739785533 896.0749999999999,567.9483739785533" fill="#009E73" stroke="#ffffff" stroke-width="0.7" stroke-linejoin="round"/><polygon points="1066,567.3715678361915 1062.325,575.2465678361915 1069.675,575.2465678361915" fill="#009E73" stroke="#ffffff" stroke-width="0.7" stroke-linejoin="round"/><circle cx="1066" cy="571.7465678361915" r="6" fill="none" stroke="#111827" stroke-width="1"/><polyline points="632,452.7776526349202 892.4,560.6255601141551 1066,571.7465678361915" fill="none" stroke="#CC79A7" stroke-width="1.6" stroke-dasharray="5,3" stroke-linejoin="round" stroke-linecap="round"/><polygon points="632,448.5776526349202 628.5,452.7776526349202 632,456.97765263492016 635.5,452.7776526349202" fill="#CC79A7" stroke="#ffffff" stroke-width="0.7" stroke-linejoin="round"/><polygon points="892.4,556.425560114155 888.9,560.6255601141551 892.4,564.8255601141551 895.9,560.6255601141551" fill="#CC79A7" stroke="#ffffff" stroke-width="0.7" stroke-linejoin="round"/><polygon points="1066,567.5465678361915 1062.5,571.7465678361915 1066,575.9465678361915 1069.5,571.7465678361915" fill="#CC79A7" stroke="#ffffff" stroke-width="0.7" stroke-linejoin="round"/><circle cx="1066" cy="571.7465678361915" r="6" fill="none" stroke="#111827" stroke-width="1"/><polyline points="632,429.1432416788358 892.4,552.1782910336349 1066,571.7465678361915" fill="none" stroke="#E69F00" stroke-width="1.6" stroke-dasharray="5,3" stroke-linejoin="round" stroke-linecap="round"/><line x1="628.5" y1="429.1432416788358" x2="635.5" y2="429.1432416788358" stroke="#E69F00" stroke-width="1.8" stroke-linecap="round"/><line x1="632" y1="425.6432416788358" x2="632" y2="432.6432416788358" stroke="#E69F00" stroke-width="1.8" stroke-linecap="round"/><line x1="888.9" y1="552.1782910336349" x2="895.9" y2="552.1782910336349" stroke="#E69F00" stroke-width="1.8" stroke-linecap="round"/><line x1="892.4" y1="548.6782910336349" x2="892.4" y2="555.6782910336349" stroke="#E69F00" stroke-width="1.8" stroke-linecap="round"/><line x1="1062.5" y1="571.7465678361915" x2="1069.5" y2="571.7465678361915" stroke="#E69F00" stroke-width="1.8" stroke-linecap="round"/><line x1="1066" y1="568.2465678361915" x2="1066" y2="575.2465678361915" stroke="#E69F00" stroke-width="1.8" stroke-linecap="round"/><circle cx="1066" cy="571.7465678361915" r="6" fill="none" stroke="#111827" stroke-width="1"/><text x="560" y="666" fill="#374151" font-size="10" font-weight="400" text-anchor="middle" dominant-baseline="hanging">固定 Q=Q₀ 时质量成本份额为零；最高预算部分点触及 B1 支持上界。折线只连接给定离散档位。</text></svg>